<?xml version="1.0" encoding="iso-8859-1"?>
<!-- Generator: Adobe Illustrator 19.0.0, SVG Export Plug-In . SVG Version: 6.00 Build 0)  -->
<svg version="1.1" id="Layer_1" xmlns="http://www.w3.org/2000/svg" xmlns:xlink="http://www.w3.org/1999/xlink" x="0px" y="0px"
	 viewBox="0 0 512 512" style="enable-background:new 0 0 512 512;" xml:space="preserve">
<path style="fill:#2D2D2D;" d="M0,355.2v-324c0.104-5.704,4.696-10.296,10.4-10.4h491.2c5.704,0.104,10.296,4.696,10.4,10.4v324H0z"
	/>
<g>
	<path style="fill:#BCBCBC;" d="M512,355.2v41.6c-0.104,5.704-4.696,10.296-10.4,10.4H10.4c-5.704-0.104-10.296-4.696-10.4-10.4
		v-41.6H512z"/>
	<rect x="146.4" y="480.8" style="fill:#BCBCBC;" width="219.2" height="10.4"/>
</g>
<polygon style="fill:#2D2D2D;" points="328.8,480.8 183.2,480.8 193.6,407.2 318.4,407.2 "/>
<rect x="20.8" y="41.6" style="fill:#FFFFFF;" width="470.4" height="292.8"/>
<polygon points="318.4,407.2 193.6,407.2 187.792,448.28 320.272,420.424 "/>
<rect x="64.56" y="107.72" style="fill:#666666;" width="116.44" height="161.2"/>
<rect x="210.08" y="107.72" style="fill:#E21B1B;" width="237.392" height="28.536"/>
<g>
	<rect x="210.08" y="163.888" style="fill:#666666;" width="237.392" height="7.864"/>
	<rect x="210.08" y="188.184" style="fill:#666666;" width="237.392" height="7.864"/>
	<rect x="210.08" y="212.488" style="fill:#666666;" width="237.392" height="7.864"/>
	<rect x="210.08" y="236.792" style="fill:#666666;" width="237.392" height="7.864"/>
	<rect x="210.08" y="261.088" style="fill:#666666;" width="237.392" height="7.864"/>
</g>
<g>
</g>
<g>
</g>
<g>
</g>
<g>
</g>
<g>
</g>
<g>
</g>
<g>
</g>
<g>
</g>
<g>
</g>
<g>
</g>
<g>
</g>
<g>
</g>
<g>
</g>
<g>
</g>
<g>
</g>
</svg>
